<svg viewBox="0 0 24 24" fill="none" xmlns="http://www.w3.org/2000/svg" class="w-32 h-32" data-fg-dim0="2.52:5.1825:/src/app/components/FerrasageLogoOnly.tsx:8:5:192:1166:e:svg::1"><path d="M 15.6 6.72 Q 18 6.72 18.72 8.4 Q 19.44 10.08 17.52 11.52 L 16.32 10.8 Q 17.52 10.08 17.04 9.12 Q 16.56 8.16 15.6 8.16 L 13.2 8.16 L 13.92 9.6 L 11.52 7.92 L 13.92 6.24 L 13.2 7.68 L 15.6 6.72 Z" fill="white" data-fg-dim2="2.52:5.1825:/src/app/components/FerrasageLogoOnly.tsx:15:7:371:242:e:path"></path><path d="M 8.4 17.28 Q 6 17.28 5.28 15.6 Q 4.56 13.92 6.48 12.48 L 7.68 13.2 Q 6.48 13.92 6.96 14.88 Q 7.44 15.84 8.4 15.84 L 10.8 15.84 L 10.08 14.4 L 12.48 16.08 L 10.08 17.76 L 10.8 16.32 L 8.4 17.28 Z" fill="white" data-fg-dim4="2.52:5.1825:/src/app/components/FerrasageLogoOnly.tsx:21:7:686:243:e:path"></path><path d="M 12 4.8 Q 16.8 4.8 19.2 8.4 Q 21.6 12 19.2 15.6" stroke="#8B9D7F" stroke-width="0.36" fill="none" opacity="0.3" data-fg-dim6="2.52:5.1825:/src/app/components/FerrasageLogoOnly.tsx:27:7:1008:167:e:path"></path><path d="M 12 19.2 Q 7.2 19.2 4.8 15.6 Q 2.4 12 4.8 8.4" stroke="#8B9D7F" stroke-width="0.36" fill="none" opacity="0.3" data-fg-dim7="2.52:5.1825:/src/app/components/FerrasageLogoOnly.tsx:34:7:1182:165:e:path"></path></svg>